<?xml version="1.0" encoding="UTF-8" standalone="no"?>
<!DOCTYPE svg PUBLIC "-//W3C//DTD SVG 1.1//EN"
 "http://www.w3.org/Graphics/SVG/1.1/DTD/svg11.dtd">
<!-- Generated by graphviz version 14.0.2 (20251019.1705)
 -->
<!-- Title: G Pages: 1 -->
<svg width="246pt" height="200pt"
 viewBox="0.00 0.00 246.00 200.00" xmlns="http://www.w3.org/2000/svg" xmlns:xlink="http://www.w3.org/1999/xlink">
<g id="graph0" class="graph" transform="scale(1 1) rotate(0) translate(4 196)">
<title>G</title>
<polygon fill="#fffafa" stroke="none" points="-4,4 -4,-196 241.51,-196 241.51,4 -4,4"/>
<!-- node_0x7ff32ca04080 -->
<g id="node1" class="node">
<title>node_0x7ff32ca04080</title>
<path fill="#98fb98" stroke="#964b00" d="M77,-125.5C77,-125.5 160.51,-125.5 160.51,-125.5 166.51,-125.5 172.51,-131.5 172.51,-137.5 172.51,-137.5 172.51,-179.5 172.51,-179.5 172.51,-185.5 166.51,-191.5 160.51,-191.5 160.51,-191.5 77,-191.5 77,-191.5 71,-191.5 65,-185.5 65,-179.5 65,-179.5 65,-137.5 65,-137.5 65,-131.5 71,-125.5 77,-125.5"/>
<text xml:space="preserve" text-anchor="middle" x="118.75" y="-176.3" font-family="Times,serif" font-size="14.00">0x7ff32ca04080</text>
<polyline fill="none" stroke="#964b00" points="65,-169.5 172.51,-169.5"/>
<text xml:space="preserve" text-anchor="middle" x="118.29" y="-154.3" font-family="Times,serif" font-size="14.00">Teaches algem</text>
<polyline fill="none" stroke="#964b00" points="65,-147.5 172.51,-147.5"/>
<text xml:space="preserve" text-anchor="middle" x="93.22" y="-132.3" font-family="Times,serif" font-size="14.00">YES</text>
<polyline fill="none" stroke="#964b00" points="121.45,-125.5 121.45,-147.5"/>
<text xml:space="preserve" text-anchor="middle" x="146.56" y="-132.3" font-family="Times,serif" font-size="14.00">NO</text>
</g>
<!-- node_0x7ff32ca040b0 -->
<g id="node2" class="node">
<title>node_0x7ff32ca040b0</title>
<path fill="#98fb98" stroke="#964b00" d="M12,-0.5C12,-0.5 95.51,-0.5 95.51,-0.5 101.51,-0.5 107.51,-6.5 107.51,-12.5 107.51,-12.5 107.51,-54.5 107.51,-54.5 107.51,-60.5 101.51,-66.5 95.51,-66.5 95.51,-66.5 12,-66.5 12,-66.5 6,-66.5 0,-60.5 0,-54.5 0,-54.5 0,-12.5 0,-12.5 0,-6.5 6,-0.5 12,-0.5"/>
<text xml:space="preserve" text-anchor="middle" x="53.75" y="-51.3" font-family="Times,serif" font-size="14.00">0x7ff32ca040b0</text>
<polyline fill="none" stroke="#964b00" points="0,-44.5 107.51,-44.5"/>
<text xml:space="preserve" text-anchor="middle" x="53.28" y="-29.3" font-family="Times,serif" font-size="14.00">Bogdanov</text>
<polyline fill="none" stroke="#964b00" points="0,-22.5 107.51,-22.5"/>
<text xml:space="preserve" text-anchor="middle" x="26.5" y="-7.3" font-family="Times,serif" font-size="14.00">0</text>
<polyline fill="none" stroke="#964b00" points="53,-0.5 53,-22.5"/>
<text xml:space="preserve" text-anchor="middle" x="80" y="-7.3" font-family="Times,serif" font-size="14.00">0</text>
</g>
<!-- node_0x7ff32ca04080&#45;&gt;node_0x7ff32ca040b0 -->
<g id="edge1" class="edge">
<title>node_0x7ff32ca04080&#45;&gt;node_0x7ff32ca040b0</title>
<path fill="none" stroke="#964b00" d="M96.33,-115.06C89.77,-102.65 82.6,-89.09 76.05,-76.69"/>
<polygon fill="#964b00" stroke="#964b00" points="93.2,-116.64 100.97,-123.85 99.39,-113.37 93.2,-116.64"/>
<polygon fill="#964b00" stroke="#964b00" points="79.19,-75.15 71.42,-67.94 73,-78.42 79.19,-75.15"/>
</g>
<!-- node_0x7ff32ca04150 -->
<g id="node3" class="node">
<title>node_0x7ff32ca04150</title>
<path fill="#98fb98" stroke="#964b00" d="M142,-0.5C142,-0.5 225.51,-0.5 225.51,-0.5 231.51,-0.5 237.51,-6.5 237.51,-12.5 237.51,-12.5 237.51,-54.5 237.51,-54.5 237.51,-60.5 231.51,-66.5 225.51,-66.5 225.51,-66.5 142,-66.5 142,-66.5 136,-66.5 130,-60.5 130,-54.5 130,-54.5 130,-12.5 130,-12.5 130,-6.5 136,-0.5 142,-0.5"/>
<text xml:space="preserve" text-anchor="middle" x="183.75" y="-51.3" font-family="Times,serif" font-size="14.00">0x7ff32ca04150</text>
<polyline fill="none" stroke="#964b00" points="130,-44.5 237.51,-44.5"/>
<text xml:space="preserve" text-anchor="middle" x="183.61" y="-29.3" font-family="Times,serif" font-size="14.00">PashaT</text>
<polyline fill="none" stroke="#964b00" points="130,-22.5 237.51,-22.5"/>
<text xml:space="preserve" text-anchor="middle" x="156.5" y="-7.3" font-family="Times,serif" font-size="14.00">0</text>
<polyline fill="none" stroke="#964b00" points="183,-0.5 183,-22.5"/>
<text xml:space="preserve" text-anchor="middle" x="210" y="-7.3" font-family="Times,serif" font-size="14.00">0</text>
</g>
<!-- node_0x7ff32ca04080&#45;&gt;node_0x7ff32ca04150 -->
<g id="edge2" class="edge">
<title>node_0x7ff32ca04080&#45;&gt;node_0x7ff32ca04150</title>
<path fill="none" stroke="#964b00" d="M141.18,-115.06C147.74,-102.65 154.91,-89.09 161.46,-76.69"/>
<polygon fill="#964b00" stroke="#964b00" points="138.12,-113.37 136.54,-123.85 144.3,-116.64 138.12,-113.37"/>
<polygon fill="#964b00" stroke="#964b00" points="164.5,-78.42 166.08,-67.94 158.32,-75.15 164.5,-78.42"/>
</g>
</g>
</svg>
