<?xml version="1.0" encoding="UTF-8" standalone="no"?>
<!DOCTYPE svg PUBLIC "-//W3C//DTD SVG 1.1//EN"
 "http://www.w3.org/Graphics/SVG/1.1/DTD/svg11.dtd">
<!-- Generated by graphviz version 14.0.2 (20251019.1705)
 -->
<!-- Title: G Pages: 1 -->
<svg width="246pt" height="200pt"
 viewBox="0.00 0.00 246.00 200.00" xmlns="http://www.w3.org/2000/svg" xmlns:xlink="http://www.w3.org/1999/xlink">
<g id="graph0" class="graph" transform="scale(1 1) rotate(0) translate(4 196)">
<title>G</title>
<polygon fill="#fffafa" stroke="none" points="-4,4 -4,-196 241.52,-196 241.52,4 -4,4"/>
<!-- node_0x7ff32c8041d0 -->
<g id="node1" class="node">
<title>node_0x7ff32c8041d0</title>
<path fill="#98fb98" stroke="#964b00" d="M77,-125.5C77,-125.5 161.29,-125.5 161.29,-125.5 167.29,-125.5 173.29,-131.5 173.29,-137.5 173.29,-137.5 173.29,-179.5 173.29,-179.5 173.29,-185.5 167.29,-191.5 161.29,-191.5 161.29,-191.5 77,-191.5 77,-191.5 71,-191.5 65,-185.5 65,-179.5 65,-179.5 65,-137.5 65,-137.5 65,-131.5 71,-125.5 77,-125.5"/>
<text xml:space="preserve" text-anchor="middle" x="119.15" y="-176.3" font-family="Times,serif" font-size="14.00">0x7ff32c8041d0</text>
<polyline fill="none" stroke="#964b00" points="65,-169.5 173.29,-169.5"/>
<text xml:space="preserve" text-anchor="middle" x="118.88" y="-154.3" font-family="Times,serif" font-size="14.00">Semer</text>
<polyline fill="none" stroke="#964b00" points="65,-147.5 173.29,-147.5"/>
<text xml:space="preserve" text-anchor="middle" x="93.22" y="-132.3" font-family="Times,serif" font-size="14.00">YES</text>
<polyline fill="none" stroke="#964b00" points="121.45,-125.5 121.45,-147.5"/>
<text xml:space="preserve" text-anchor="middle" x="147.06" y="-132.3" font-family="Times,serif" font-size="14.00">NO</text>
</g>
<!-- node_0x7ff32c804250 -->
<g id="node2" class="node">
<title>node_0x7ff32c804250</title>
<path fill="#98fb98" stroke="#964b00" d="M12,-0.5C12,-0.5 96.29,-0.5 96.29,-0.5 102.29,-0.5 108.29,-6.5 108.29,-12.5 108.29,-12.5 108.29,-54.5 108.29,-54.5 108.29,-60.5 102.29,-66.5 96.29,-66.5 96.29,-66.5 12,-66.5 12,-66.5 6,-66.5 0,-60.5 0,-54.5 0,-54.5 0,-12.5 0,-12.5 0,-6.5 6,-0.5 12,-0.5"/>
<text xml:space="preserve" text-anchor="middle" x="54.15" y="-51.3" font-family="Times,serif" font-size="14.00">0x7ff32c804250</text>
<polyline fill="none" stroke="#964b00" points="0,-44.5 108.29,-44.5"/>
<text xml:space="preserve" text-anchor="middle" x="53.67" y="-29.3" font-family="Times,serif" font-size="14.00">Bulinskii</text>
<polyline fill="none" stroke="#964b00" points="0,-22.5 108.29,-22.5"/>
<text xml:space="preserve" text-anchor="middle" x="27" y="-7.3" font-family="Times,serif" font-size="14.00">0</text>
<polyline fill="none" stroke="#964b00" points="54,-0.5 54,-22.5"/>
<text xml:space="preserve" text-anchor="middle" x="81" y="-7.3" font-family="Times,serif" font-size="14.00">0</text>
</g>
<!-- node_0x7ff32c8041d0&#45;&gt;node_0x7ff32c804250 -->
<g id="edge1" class="edge">
<title>node_0x7ff32c8041d0&#45;&gt;node_0x7ff32c804250</title>
<path fill="none" stroke="#964b00" d="M96.72,-115.06C90.16,-102.65 82.99,-89.09 76.44,-76.69"/>
<polygon fill="#964b00" stroke="#964b00" points="93.59,-116.64 101.36,-123.85 99.78,-113.37 93.59,-116.64"/>
<polygon fill="#964b00" stroke="#964b00" points="79.58,-75.15 71.82,-67.94 73.39,-78.42 79.58,-75.15"/>
</g>
<!-- node_0x7ff32bf06760 -->
<g id="node3" class="node">
<title>node_0x7ff32bf06760</title>
<path fill="#98fb98" stroke="#964b00" d="M142.78,-0.5C142.78,-0.5 225.52,-0.5 225.52,-0.5 231.52,-0.5 237.52,-6.5 237.52,-12.5 237.52,-12.5 237.52,-54.5 237.52,-54.5 237.52,-60.5 231.52,-66.5 225.52,-66.5 225.52,-66.5 142.78,-66.5 142.78,-66.5 136.78,-66.5 130.78,-60.5 130.78,-54.5 130.78,-54.5 130.78,-12.5 130.78,-12.5 130.78,-6.5 136.78,-0.5 142.78,-0.5"/>
<text xml:space="preserve" text-anchor="middle" x="184.15" y="-51.3" font-family="Times,serif" font-size="14.00">0x7ff32bf06760</text>
<polyline fill="none" stroke="#964b00" points="130.78,-44.5 237.52,-44.5"/>
<text xml:space="preserve" text-anchor="middle" x="183.88" y="-29.3" font-family="Times,serif" font-size="14.00">Lukashov</text>
<polyline fill="none" stroke="#964b00" points="130.78,-22.5 237.52,-22.5"/>
<text xml:space="preserve" text-anchor="middle" x="157.28" y="-7.3" font-family="Times,serif" font-size="14.00">0</text>
<polyline fill="none" stroke="#964b00" points="183.78,-0.5 183.78,-22.5"/>
<text xml:space="preserve" text-anchor="middle" x="210.28" y="-7.3" font-family="Times,serif" font-size="14.00">0</text>
</g>
<!-- node_0x7ff32c8041d0&#45;&gt;node_0x7ff32bf06760 -->
<g id="edge2" class="edge">
<title>node_0x7ff32c8041d0&#45;&gt;node_0x7ff32bf06760</title>
<path fill="none" stroke="#964b00" d="M141.57,-115.06C148.13,-102.65 155.3,-89.09 161.85,-76.69"/>
<polygon fill="#964b00" stroke="#964b00" points="138.51,-113.37 136.93,-123.85 144.7,-116.64 138.51,-113.37"/>
<polygon fill="#964b00" stroke="#964b00" points="164.9,-78.42 166.47,-67.94 158.71,-75.15 164.9,-78.42"/>
</g>
</g>
</svg>
