<?xml version="1.0" encoding="UTF-8" standalone="no"?>
<!DOCTYPE svg PUBLIC "-//W3C//DTD SVG 1.1//EN"
 "http://www.w3.org/Graphics/SVG/1.1/DTD/svg11.dtd">
<!-- Generated by graphviz version 14.0.2 (20251019.1705)
 -->
<!-- Title: G Pages: 1 -->
<svg width="116pt" height="75pt"
 viewBox="0.00 0.00 116.00 75.00" xmlns="http://www.w3.org/2000/svg" xmlns:xlink="http://www.w3.org/1999/xlink">
<g id="graph0" class="graph" transform="scale(1 1) rotate(0) translate(4 71)">
<title>G</title>
<polygon fill="#fffafa" stroke="none" points="-4,4 -4,-71 112.29,-71 112.29,4 -4,4"/>
<!-- node_0x7ff32c804100 -->
<g id="node1" class="node">
<title>node_0x7ff32c804100</title>
<path fill="#98fb98" stroke="#964b00" d="M12,-0.5C12,-0.5 96.29,-0.5 96.29,-0.5 102.29,-0.5 108.29,-6.5 108.29,-12.5 108.29,-12.5 108.29,-54.5 108.29,-54.5 108.29,-60.5 102.29,-66.5 96.29,-66.5 96.29,-66.5 12,-66.5 12,-66.5 6,-66.5 0,-60.5 0,-54.5 0,-54.5 0,-12.5 0,-12.5 0,-6.5 6,-0.5 12,-0.5"/>
<text xml:space="preserve" text-anchor="middle" x="54.15" y="-51.3" font-family="Times,serif" font-size="14.00">0x7ff32c804100</text>
<polyline fill="none" stroke="#964b00" points="0,-44.5 108.29,-44.5"/>
<text xml:space="preserve" text-anchor="middle" x="54.05" y="-29.3" font-family="Times,serif" font-size="14.00">Poltorashka</text>
<polyline fill="none" stroke="#964b00" points="0,-22.5 108.29,-22.5"/>
<text xml:space="preserve" text-anchor="middle" x="27" y="-7.3" font-family="Times,serif" font-size="14.00">0</text>
<polyline fill="none" stroke="#964b00" points="54,-0.5 54,-22.5"/>
<text xml:space="preserve" text-anchor="middle" x="81" y="-7.3" font-family="Times,serif" font-size="14.00">0</text>
</g>
</g>
</svg>
