<?xml version="1.0" encoding="UTF-8" standalone="no"?>
<!DOCTYPE svg PUBLIC "-//W3C//DTD SVG 1.1//EN"
 "http://www.w3.org/Graphics/SVG/1.1/DTD/svg11.dtd">
<!-- Generated by graphviz version 14.0.2 (20251019.1705)
 -->
<!-- Title: G Pages: 1 -->
<svg width="505pt" height="450pt"
 viewBox="0.00 0.00 505.00 450.00" xmlns="http://www.w3.org/2000/svg" xmlns:xlink="http://www.w3.org/1999/xlink">
<g id="graph0" class="graph" transform="scale(1 1) rotate(0) translate(4 446)">
<title>G</title>
<polygon fill="#fffafa" stroke="none" points="-4,4 -4,-446 500.9,-446 500.9,4 -4,4"/>
<!-- node_0x7ff32c8040d0 -->
<g id="node1" class="node">
<title>node_0x7ff32c8040d0</title>
<path fill="#98fb98" stroke="#964b00" d="M141,-375.5C141,-375.5 225.29,-375.5 225.29,-375.5 231.29,-375.5 237.29,-381.5 237.29,-387.5 237.29,-387.5 237.29,-429.5 237.29,-429.5 237.29,-435.5 231.29,-441.5 225.29,-441.5 225.29,-441.5 141,-441.5 141,-441.5 135,-441.5 129,-435.5 129,-429.5 129,-429.5 129,-387.5 129,-387.5 129,-381.5 135,-375.5 141,-375.5"/>
<text xml:space="preserve" text-anchor="middle" x="183.15" y="-426.3" font-family="Times,serif" font-size="14.00">0x7ff32c8040d0</text>
<polyline fill="none" stroke="#964b00" points="129,-419.5 237.29,-419.5"/>
<text xml:space="preserve" text-anchor="middle" x="183" y="-404.3" font-family="Times,serif" font-size="14.00">Animal</text>
<polyline fill="none" stroke="#964b00" points="129,-397.5 237.29,-397.5"/>
<text xml:space="preserve" text-anchor="middle" x="157.22" y="-382.3" font-family="Times,serif" font-size="14.00">YES</text>
<polyline fill="none" stroke="#964b00" points="185.45,-375.5 185.45,-397.5"/>
<text xml:space="preserve" text-anchor="middle" x="211.06" y="-382.3" font-family="Times,serif" font-size="14.00">NO</text>
</g>
<!-- node_0x7ff32c804100 -->
<g id="node2" class="node">
<title>node_0x7ff32c804100</title>
<path fill="#98fb98" stroke="#964b00" d="M76,-250.5C76,-250.5 160.29,-250.5 160.29,-250.5 166.29,-250.5 172.29,-256.5 172.29,-262.5 172.29,-262.5 172.29,-304.5 172.29,-304.5 172.29,-310.5 166.29,-316.5 160.29,-316.5 160.29,-316.5 76,-316.5 76,-316.5 70,-316.5 64,-310.5 64,-304.5 64,-304.5 64,-262.5 64,-262.5 64,-256.5 70,-250.5 76,-250.5"/>
<text xml:space="preserve" text-anchor="middle" x="118.15" y="-301.3" font-family="Times,serif" font-size="14.00">0x7ff32c804100</text>
<polyline fill="none" stroke="#964b00" points="64,-294.5 172.29,-294.5"/>
<text xml:space="preserve" text-anchor="middle" x="118.05" y="-279.3" font-family="Times,serif" font-size="14.00">Poltorashka</text>
<polyline fill="none" stroke="#964b00" points="64,-272.5 172.29,-272.5"/>
<text xml:space="preserve" text-anchor="middle" x="91" y="-257.3" font-family="Times,serif" font-size="14.00">0</text>
<polyline fill="none" stroke="#964b00" points="118,-250.5 118,-272.5"/>
<text xml:space="preserve" text-anchor="middle" x="145" y="-257.3" font-family="Times,serif" font-size="14.00">0</text>
</g>
<!-- node_0x7ff32c8040d0&#45;&gt;node_0x7ff32c804100 -->
<g id="edge1" class="edge">
<title>node_0x7ff32c8040d0&#45;&gt;node_0x7ff32c804100</title>
<path fill="none" stroke="#964b00" d="M160.72,-365.06C154.16,-352.65 146.99,-339.09 140.44,-326.69"/>
<polygon fill="#964b00" stroke="#964b00" points="157.59,-366.64 165.36,-373.85 163.78,-363.37 157.59,-366.64"/>
<polygon fill="#964b00" stroke="#964b00" points="143.58,-325.15 135.82,-317.94 137.39,-328.42 143.58,-325.15"/>
</g>
<!-- node_0x7ff32c8041a0 -->
<g id="node3" class="node">
<title>node_0x7ff32c8041a0</title>
<path fill="#98fb98" stroke="#964b00" d="M206.39,-250.5C206.39,-250.5 289.9,-250.5 289.9,-250.5 295.9,-250.5 301.9,-256.5 301.9,-262.5 301.9,-262.5 301.9,-304.5 301.9,-304.5 301.9,-310.5 295.9,-316.5 289.9,-316.5 289.9,-316.5 206.39,-316.5 206.39,-316.5 200.39,-316.5 194.39,-310.5 194.39,-304.5 194.39,-304.5 194.39,-262.5 194.39,-262.5 194.39,-256.5 200.39,-250.5 206.39,-250.5"/>
<text xml:space="preserve" text-anchor="middle" x="248.15" y="-301.3" font-family="Times,serif" font-size="14.00">0x7ff32c8041a0</text>
<polyline fill="none" stroke="#964b00" points="194.39,-294.5 301.9,-294.5"/>
<text xml:space="preserve" text-anchor="middle" x="247.69" y="-279.3" font-family="Times,serif" font-size="14.00">Teaches matan</text>
<polyline fill="none" stroke="#964b00" points="194.39,-272.5 301.9,-272.5"/>
<text xml:space="preserve" text-anchor="middle" x="222.62" y="-257.3" font-family="Times,serif" font-size="14.00">YES</text>
<polyline fill="none" stroke="#964b00" points="250.84,-250.5 250.84,-272.5"/>
<text xml:space="preserve" text-anchor="middle" x="275.95" y="-257.3" font-family="Times,serif" font-size="14.00">NO</text>
</g>
<!-- node_0x7ff32c8040d0&#45;&gt;node_0x7ff32c8041a0 -->
<g id="edge2" class="edge">
<title>node_0x7ff32c8040d0&#45;&gt;node_0x7ff32c8041a0</title>
<path fill="none" stroke="#964b00" d="M205.57,-365.06C212.13,-352.65 219.3,-339.09 225.85,-326.69"/>
<polygon fill="#964b00" stroke="#964b00" points="202.51,-363.37 200.93,-373.85 208.7,-366.64 202.51,-363.37"/>
<polygon fill="#964b00" stroke="#964b00" points="228.9,-328.42 230.47,-317.94 222.71,-325.15 228.9,-328.42"/>
</g>
<!-- node_0x7ff32c8041d0 -->
<g id="node4" class="node">
<title>node_0x7ff32c8041d0</title>
<path fill="#98fb98" stroke="#964b00" d="M141,-125.5C141,-125.5 225.29,-125.5 225.29,-125.5 231.29,-125.5 237.29,-131.5 237.29,-137.5 237.29,-137.5 237.29,-179.5 237.29,-179.5 237.29,-185.5 231.29,-191.5 225.29,-191.5 225.29,-191.5 141,-191.5 141,-191.5 135,-191.5 129,-185.5 129,-179.5 129,-179.5 129,-137.5 129,-137.5 129,-131.5 135,-125.5 141,-125.5"/>
<text xml:space="preserve" text-anchor="middle" x="183.15" y="-176.3" font-family="Times,serif" font-size="14.00">0x7ff32c8041d0</text>
<polyline fill="none" stroke="#964b00" points="129,-169.5 237.29,-169.5"/>
<text xml:space="preserve" text-anchor="middle" x="182.88" y="-154.3" font-family="Times,serif" font-size="14.00">Semer</text>
<polyline fill="none" stroke="#964b00" points="129,-147.5 237.29,-147.5"/>
<text xml:space="preserve" text-anchor="middle" x="157.22" y="-132.3" font-family="Times,serif" font-size="14.00">YES</text>
<polyline fill="none" stroke="#964b00" points="185.45,-125.5 185.45,-147.5"/>
<text xml:space="preserve" text-anchor="middle" x="211.06" y="-132.3" font-family="Times,serif" font-size="14.00">NO</text>
</g>
<!-- node_0x7ff32c8041a0&#45;&gt;node_0x7ff32c8041d0 -->
<g id="edge3" class="edge">
<title>node_0x7ff32c8041a0&#45;&gt;node_0x7ff32c8041d0</title>
<path fill="none" stroke="#964b00" d="M225.72,-240.06C219.16,-227.65 211.99,-214.09 205.44,-201.69"/>
<polygon fill="#964b00" stroke="#964b00" points="222.59,-241.64 230.36,-248.85 228.78,-238.37 222.59,-241.64"/>
<polygon fill="#964b00" stroke="#964b00" points="208.58,-200.15 200.82,-192.94 202.39,-203.42 208.58,-200.15"/>
</g>
<!-- node_0x7ff32ca04080 -->
<g id="node7" class="node">
<title>node_0x7ff32ca04080</title>
<path fill="#98fb98" stroke="#964b00" d="M271.39,-125.5C271.39,-125.5 354.9,-125.5 354.9,-125.5 360.9,-125.5 366.9,-131.5 366.9,-137.5 366.9,-137.5 366.9,-179.5 366.9,-179.5 366.9,-185.5 360.9,-191.5 354.9,-191.5 354.9,-191.5 271.39,-191.5 271.39,-191.5 265.39,-191.5 259.39,-185.5 259.39,-179.5 259.39,-179.5 259.39,-137.5 259.39,-137.5 259.39,-131.5 265.39,-125.5 271.39,-125.5"/>
<text xml:space="preserve" text-anchor="middle" x="313.15" y="-176.3" font-family="Times,serif" font-size="14.00">0x7ff32ca04080</text>
<polyline fill="none" stroke="#964b00" points="259.39,-169.5 366.9,-169.5"/>
<text xml:space="preserve" text-anchor="middle" x="312.69" y="-154.3" font-family="Times,serif" font-size="14.00">Teaches algem</text>
<polyline fill="none" stroke="#964b00" points="259.39,-147.5 366.9,-147.5"/>
<text xml:space="preserve" text-anchor="middle" x="287.62" y="-132.3" font-family="Times,serif" font-size="14.00">YES</text>
<polyline fill="none" stroke="#964b00" points="315.84,-125.5 315.84,-147.5"/>
<text xml:space="preserve" text-anchor="middle" x="340.95" y="-132.3" font-family="Times,serif" font-size="14.00">NO</text>
</g>
<!-- node_0x7ff32c8041a0&#45;&gt;node_0x7ff32ca04080 -->
<g id="edge6" class="edge">
<title>node_0x7ff32c8041a0&#45;&gt;node_0x7ff32ca04080</title>
<path fill="none" stroke="#964b00" d="M270.57,-240.06C277.13,-227.65 284.3,-214.09 290.85,-201.69"/>
<polygon fill="#964b00" stroke="#964b00" points="267.51,-238.37 265.93,-248.85 273.7,-241.64 267.51,-238.37"/>
<polygon fill="#964b00" stroke="#964b00" points="293.9,-203.42 295.47,-192.94 287.71,-200.15 293.9,-203.42"/>
</g>
<!-- node_0x7ff32c804250 -->
<g id="node5" class="node">
<title>node_0x7ff32c804250</title>
<path fill="#98fb98" stroke="#964b00" d="M12,-0.5C12,-0.5 96.29,-0.5 96.29,-0.5 102.29,-0.5 108.29,-6.5 108.29,-12.5 108.29,-12.5 108.29,-54.5 108.29,-54.5 108.29,-60.5 102.29,-66.5 96.29,-66.5 96.29,-66.5 12,-66.5 12,-66.5 6,-66.5 0,-60.5 0,-54.5 0,-54.5 0,-12.5 0,-12.5 0,-6.5 6,-0.5 12,-0.5"/>
<text xml:space="preserve" text-anchor="middle" x="54.15" y="-51.3" font-family="Times,serif" font-size="14.00">0x7ff32c804250</text>
<polyline fill="none" stroke="#964b00" points="0,-44.5 108.29,-44.5"/>
<text xml:space="preserve" text-anchor="middle" x="53.67" y="-29.3" font-family="Times,serif" font-size="14.00">Bulinskii</text>
<polyline fill="none" stroke="#964b00" points="0,-22.5 108.29,-22.5"/>
<text xml:space="preserve" text-anchor="middle" x="27" y="-7.3" font-family="Times,serif" font-size="14.00">0</text>
<polyline fill="none" stroke="#964b00" points="54,-0.5 54,-22.5"/>
<text xml:space="preserve" text-anchor="middle" x="81" y="-7.3" font-family="Times,serif" font-size="14.00">0</text>
</g>
<!-- node_0x7ff32c8041d0&#45;&gt;node_0x7ff32c804250 -->
<g id="edge4" class="edge">
<title>node_0x7ff32c8041d0&#45;&gt;node_0x7ff32c804250</title>
<path fill="none" stroke="#964b00" d="M141.01,-117.32C126.59,-103.57 110.47,-88.2 96.07,-74.47"/>
<polygon fill="#964b00" stroke="#964b00" points="138.5,-119.77 148.16,-124.14 143.34,-114.7 138.5,-119.77"/>
<polygon fill="#964b00" stroke="#964b00" points="98.56,-72.01 88.91,-67.65 93.73,-77.08 98.56,-72.01"/>
</g>
<!-- node_0x7ff32bf06760 -->
<g id="node6" class="node">
<title>node_0x7ff32bf06760</title>
<path fill="#98fb98" stroke="#964b00" d="M142.78,-0.5C142.78,-0.5 225.52,-0.5 225.52,-0.5 231.52,-0.5 237.52,-6.5 237.52,-12.5 237.52,-12.5 237.52,-54.5 237.52,-54.5 237.52,-60.5 231.52,-66.5 225.52,-66.5 225.52,-66.5 142.78,-66.5 142.78,-66.5 136.78,-66.5 130.78,-60.5 130.78,-54.5 130.78,-54.5 130.78,-12.5 130.78,-12.5 130.78,-6.5 136.78,-0.5 142.78,-0.5"/>
<text xml:space="preserve" text-anchor="middle" x="184.15" y="-51.3" font-family="Times,serif" font-size="14.00">0x7ff32bf06760</text>
<polyline fill="none" stroke="#964b00" points="130.78,-44.5 237.52,-44.5"/>
<text xml:space="preserve" text-anchor="middle" x="183.88" y="-29.3" font-family="Times,serif" font-size="14.00">Lukashov</text>
<polyline fill="none" stroke="#964b00" points="130.78,-22.5 237.52,-22.5"/>
<text xml:space="preserve" text-anchor="middle" x="157.28" y="-7.3" font-family="Times,serif" font-size="14.00">0</text>
<polyline fill="none" stroke="#964b00" points="183.78,-0.5 183.78,-22.5"/>
<text xml:space="preserve" text-anchor="middle" x="210.28" y="-7.3" font-family="Times,serif" font-size="14.00">0</text>
</g>
<!-- node_0x7ff32c8041d0&#45;&gt;node_0x7ff32bf06760 -->
<g id="edge5" class="edge">
<title>node_0x7ff32c8041d0&#45;&gt;node_0x7ff32bf06760</title>
<path fill="none" stroke="#964b00" d="M183.5,-113.7C183.6,-102.05 183.7,-89.47 183.79,-77.84"/>
<polygon fill="#964b00" stroke="#964b00" points="180,-113.64 183.42,-123.67 187,-113.7 180,-113.64"/>
<polygon fill="#964b00" stroke="#964b00" points="187.29,-78.14 183.87,-68.11 180.29,-78.09 187.29,-78.14"/>
</g>
<!-- node_0x7ff32ca040b0 -->
<g id="node8" class="node">
<title>node_0x7ff32ca040b0</title>
<path fill="#98fb98" stroke="#964b00" d="M271.39,-0.5C271.39,-0.5 354.9,-0.5 354.9,-0.5 360.9,-0.5 366.9,-6.5 366.9,-12.5 366.9,-12.5 366.9,-54.5 366.9,-54.5 366.9,-60.5 360.9,-66.5 354.9,-66.5 354.9,-66.5 271.39,-66.5 271.39,-66.5 265.39,-66.5 259.39,-60.5 259.39,-54.5 259.39,-54.5 259.39,-12.5 259.39,-12.5 259.39,-6.5 265.39,-0.5 271.39,-0.5"/>
<text xml:space="preserve" text-anchor="middle" x="313.15" y="-51.3" font-family="Times,serif" font-size="14.00">0x7ff32ca040b0</text>
<polyline fill="none" stroke="#964b00" points="259.39,-44.5 366.9,-44.5"/>
<text xml:space="preserve" text-anchor="middle" x="312.67" y="-29.3" font-family="Times,serif" font-size="14.00">Bogdanov</text>
<polyline fill="none" stroke="#964b00" points="259.39,-22.5 366.9,-22.5"/>
<text xml:space="preserve" text-anchor="middle" x="285.89" y="-7.3" font-family="Times,serif" font-size="14.00">0</text>
<polyline fill="none" stroke="#964b00" points="312.39,-0.5 312.39,-22.5"/>
<text xml:space="preserve" text-anchor="middle" x="339.39" y="-7.3" font-family="Times,serif" font-size="14.00">0</text>
</g>
<!-- node_0x7ff32ca04080&#45;&gt;node_0x7ff32ca040b0 -->
<g id="edge7" class="edge">
<title>node_0x7ff32ca04080&#45;&gt;node_0x7ff32ca040b0</title>
<path fill="none" stroke="#964b00" d="M313.15,-113.7C313.15,-102.05 313.15,-89.47 313.15,-77.84"/>
<polygon fill="#964b00" stroke="#964b00" points="309.65,-113.67 313.15,-123.67 316.65,-113.67 309.65,-113.67"/>
<polygon fill="#964b00" stroke="#964b00" points="316.65,-78.11 313.15,-68.11 309.65,-78.11 316.65,-78.11"/>
</g>
<!-- node_0x7ff32ca04150 -->
<g id="node9" class="node">
<title>node_0x7ff32ca04150</title>
<path fill="#98fb98" stroke="#964b00" d="M401.39,-0.5C401.39,-0.5 484.9,-0.5 484.9,-0.5 490.9,-0.5 496.9,-6.5 496.9,-12.5 496.9,-12.5 496.9,-54.5 496.9,-54.5 496.9,-60.5 490.9,-66.5 484.9,-66.5 484.9,-66.5 401.39,-66.5 401.39,-66.5 395.39,-66.5 389.39,-60.5 389.39,-54.5 389.39,-54.5 389.39,-12.5 389.39,-12.5 389.39,-6.5 395.39,-0.5 401.39,-0.5"/>
<text xml:space="preserve" text-anchor="middle" x="443.15" y="-51.3" font-family="Times,serif" font-size="14.00">0x7ff32ca04150</text>
<polyline fill="none" stroke="#964b00" points="389.39,-44.5 496.9,-44.5"/>
<text xml:space="preserve" text-anchor="middle" x="443" y="-29.3" font-family="Times,serif" font-size="14.00">PashaT</text>
<polyline fill="none" stroke="#964b00" points="389.39,-22.5 496.9,-22.5"/>
<text xml:space="preserve" text-anchor="middle" x="415.89" y="-7.3" font-family="Times,serif" font-size="14.00">0</text>
<polyline fill="none" stroke="#964b00" points="442.39,-0.5 442.39,-22.5"/>
<text xml:space="preserve" text-anchor="middle" x="469.39" y="-7.3" font-family="Times,serif" font-size="14.00">0</text>
</g>
<!-- node_0x7ff32ca04080&#45;&gt;node_0x7ff32ca04150 -->
<g id="edge8" class="edge">
<title>node_0x7ff32ca04080&#45;&gt;node_0x7ff32ca04150</title>
<path fill="none" stroke="#964b00" d="M355.61,-117.32C370.14,-103.57 386.39,-88.2 400.9,-74.47"/>
<polygon fill="#964b00" stroke="#964b00" points="353.26,-114.73 348.4,-124.14 358.07,-119.81 353.26,-114.73"/>
<polygon fill="#964b00" stroke="#964b00" points="403.26,-77.06 408.12,-67.64 398.45,-71.97 403.26,-77.06"/>
</g>
</g>
</svg>
